<?xml version="1.0" standalone="no"?>
<!DOCTYPE svg PUBLIC "-//W3C//DTD SVG 20010904//EN"
 "http://www.w3.org/TR/2001/REC-SVG-20010904/DTD/svg10.dtd">
<svg version="1.0" xmlns="http://www.w3.org/2000/svg"
 width="300.000000pt" height="300.000000pt" viewBox="0 0 300.000000 300.000000"
 preserveAspectRatio="xMidYMid meet">
<metadata>
Created by potrace 1.14, written by Peter Selinger 2001-2017
</metadata>
<g transform="translate(0.000000,300.000000) scale(0.100000,-0.100000)"
fill="#000000" stroke="none">
<path d="M0 1500 l0 -1500 180 0 180 0 0 1207 0 1208 553 -553 552 -552 578
577 577 578 0 -1230 0 -1230 190 3 190 3 0 1494 0 1495 -182 0 -183 0 -577
-577 -578 -578 -578 578 -577 577 -163 0 -162 0 0 -1500z"/>
<path d="M1848 1303 l-358 -358 -343 343 -342 342 -98 0 -97 0 0 -815 0 -815
100 0 100 0 0 662 0 663 348 -348 c191 -191 352 -347 357 -347 5 0 162 152
347 337 l338 338 0 -653 0 -652 105 0 105 0 0 830 0 830 -103 0 -102 0 -357
-357z"/>
</g>
</svg>
